<svg xmlns="http://www.w3.org/2000/svg" viewBox="0 0 600 750" width="600" height="750" role="img" aria-label="Retrato ilustrado de clarice beiral" xmlns:c2pa="http://c2pa.org/manifest"><metadata><c2pa:manifest>AAAWgmp1bWIAAAAeanVtZGMycGEAEQAQgAAAqgA4m3EDYzJwYQAAABZcanVtYgAAAEdqdW1kYzJtYQARABCAAACqADibcQN1cm46YzJwYTpjMGRjZGMwNS0yOTNkLTQzZWUtYTg2Mi1hZWRlOWQ3MTFmZmUAAAADl2p1bWIAAAApanVtZGMyYXMAEQAQgAAAqgA4m3EDYzJwYS5hc3NlcnRpb25zAAAAALxqdW1iAAAARGp1bWRjYm9yABEAEIAAAKoAOJtxE2MycGEuaW5ncmVkaWVudC52MwAAAAAYYzJzaDZBrCvaOQ9ZUpYjuYhlHv8AAABwY2JvcqNpZGM6Zm9ybWF0bWltYWdlL3N2Zyt4bWxqaW5zdGFuY2VJRHgseG1wOmlpZDoxYjUyMTk0Ni0yNGU1LTRhMDEtOWY3Yi1hZDgwZGQ5ZTdlYmNscmVsYXRpb25zaGlwaHBhcmVudE9mAAAB4mp1bWIAAABBanVtZGNib3IAEQAQgAAAqgA4m3ETYzJwYS5hY3Rpb25zLnYyAAAAABhjMnNoxDVaJ5KubuUbyQzxYgIyEwAAAZljYm9yomdhY3Rpb25zgqJmYWN0aW9ua2MycGEub3BlbmVkanBhcmFtZXRlcnOha2luZ3JlZGllbnRzgaJjdXJseC1zZWxmI2p1bWJmPWMycGEuYXNzZXJ0aW9ucy9jMnBhLmluZ3JlZGllbnQudjNkaGFzaFggMnszC9xw0kJsVxTicTjg776qw5xtbI1oyZLn9jRNNSSkZmFjdGlvbngdY29tLmFudGhyb3BpYy5jbGF1ZGUucHJvdmlkZWRqcGFyYW1ldGVyc6F4H2NvbS5hbnRocm9waWMub3JpZ2luLWNvbmZpZGVuY2VndW5rbm93bmtkZXNjcmlwdGlvbnhmQ2xhdWRlIHByb3ZpZGVkIHRoaXMgZmlsZSBhdCB0aGUgcmVxdWVzdCBvZiBhIHVzZXIgYW5kIG1heSBoYXZlIGNyZWF0ZWQgb3IgbW9kaWZpZWQgdGhlIGZpbGUgY29udGVudHMubXNvZnR3YXJlQWdlbnShZG5hbWVmQ2xhdWRlcmFsbEFjdGlvbnNJbmNsdWRlZPUAAADIanVtYgAAAEBqdW1kY2JvcgARABCAAACqADibcRNjMnBhLmhhc2guZGF0YQAAAAAYYzJzaISTh/mVcMozgcW00UBOcw4AAACAY2JvcqVjYWxnZnNoYTI1NmNwYWRNAAAAAAAAAAAAAAAAAGRoYXNoWCDgA6upiL3MIgleyDqj3A1Wf6AxjpupVCfugoK171cpbmRuYW1lbmp1bWJmIG1hbmlmZXN0amV4Y2x1c2lvbnOBomVzdGFydBjSZmxlbmd0aBkeBAAAAj5qdW1iAAAAJ2p1bWRjMmNsABEAEIAAAKoAOJtxA2MycGEuY2xhaW0udjIAAAACD2Nib3KlY2FsZ2ZzaGEyNTZpc2lnbmF0dXJleE1zZWxmI2p1bWJmPS9jMnBhL3VybjpjMnBhOmMwZGNkYzA1LTI5M2QtNDNlZS1hODYyLWFlZGU5ZDcxMWZmZS9jMnBhLnNpZ25hdHVyZWppbnN0YW5jZUlEeCx4bXA6aWlkOmU1MjFjYjc5LWU5ZmYtNDEzNS04NDM0LWMzOGUxM2VjNjc1OXJjcmVhdGVkX2Fzc2VydGlvbnODomN1cmx4LXNlbGYjanVtYmY9YzJwYS5hc3NlcnRpb25zL2MycGEuaW5ncmVkaWVudC52M2RoYXNoWCAyezML3HDSQmxXFOJxOODvvqrDnG1sjWjJkuf2NE01JKJjdXJseCpzZWxmI2p1bWJmPWMycGEuYXNzZXJ0aW9ucy9jMnBhLmFjdGlvbnMudjJkaGFzaFggrTy12aUYYiRQPQUWXkxzqpq2UEy2IUSDhfJv97yvTdWiY3VybHgpc2VsZiNqdW1iZj1jMnBhLmFzc2VydGlvbnMvYzJwYS5oYXNoLmRhdGFkaGFzaFggAssqc8xw3cuxMbhpiVgWx9RatzvezS7l6LWO2q2oCxp0Y2xhaW1fZ2VuZXJhdG9yX2luZm+jZG5hbWVvQW50aHJvcGljIEZpbGVzZ3ZlcnNpb25lMS4wLjBrc3BlY1ZlcnNpb25lMi40LjAAABA4anVtYgAAAChqdW1kYzJjcwARABCAAACqADibcQNjMnBhLnNpZ25hdHVyZQAAABAIY2JvctKEWQISogEmGCFZAgowggIGMIIBjaADAgECAhRA5aAK7sI50L64g/oGQgU9Z1UTADAKBggqhkjOPQQDAzBJMRcwFQYDVQQKEw5BbnRocm9waWMsIFBCQzEuMCwGA1UEAxMlQW50aHJvcGljIENvbnRlbnQgQ3JlZGVudGlhbHMgUm9vdCBDQTAeFw0yNjA4MDcxODQzNTZaFw0yODA4MDYxOTQzNTZaMEQxFzAVBgNVBAoTDkFudGhyb3BpYywgUEJDMSkwJwYDVQQDEyBBbnRocm9waWMgQ2xhdWRlIENvbnRlbnQgU2lnbmluZzBZMBMGByqGSM49AgEGCCqGSM49AwEHA0IABJh6CmvLUBgFFNU0vUKlOVtE6djd17L5SuwX0LemFisBM3dkd/3cyjxFA3Qo5S46fX0/ihY0VZ7mfb9KF703t5OjWDBWMA4GA1UdDwEB/wQEAwIHgDAVBgNVHSUEDjAMBgorBgEEAYPoXgIBMAwGA1UdEwEB/wQCMAAwHwYDVR0jBBgwFoAUzlHiBIFOZFsj+OPEz5o+nMHXXMIwCgYIKoZIzj0EAwMDZwAwZAIwMXMdFJ4BetLLVY7ORuE9noqbbAZOZn/aArXyTwFAZfKrPzxF2vPoJNf1+UCdg1XGAjBwX1zd9WGqYkqmL5SFqw1QySjr1zJfpJM9+1rdDwSPLMOPOjKuiXjoU/pUUeG9RwmhY3BhZFkNngAAAAAAAAAAAAAAAAAAAAAAAAAAAAAAAAAAAAAAAAAAAAAAAAAAAAAAAAAAAAAAAAAAAAAAAAAAAAAAAAAAAAAAAAAAAAAAAAAAAAAAAAAAAAAAAAAAAAAAAAAAAAAAAAAAAAAAAAAAAAAAAAAAAAAAAAAAAAAAAAAAAAAAAAAAAAAAAAAAAAAAAAAAAAAAAAAAAAAAAAAAAAAAAAAAAAAAAAAAAAAAAAAAAAAAAAAAAAAAAAAAAAAAAAAAAAAAAAAAAAAAAAAAAAAAAAAAAAAAAAAAAAAAAAAAAAAAAAAAAAAAAAAAAAAAAAAAAAAAAAAAAAAAAAAAAAAAAAAAAAAAAAAAAAAAAAAAAAAAAAAAAAAAAAAAAAAAAAAAAAAAAAAAAAAAAAAAAAAAAAAAAAAAAAAAAAAAAAAAAAAAAAAAAAAAAAAAAAAAAAAAAAAAAAAAAAAAAAAAAAAAAAAAAAAAAAAAAAAAAAAAAAAAAAAAAAAAAAAAAAAAAAAAAAAAAAAAAAAAAAAAAAAAAAAAAAAAAAAAAAAAAAAAAAAAAAAAAAAAAAAAAAAAAAAAAAAAAAAAAAAAAAAAAAAAAAAAAAAAAAAAAAAAAAAAAAAAAAAAAAAAAAAAAAAAAAAAAAAAAAAAAAAAAAAAAAAAAAAAAAAAAAAAAAAAAAAAAAAAAAAAAAAAAAAAAAAAAAAAAAAAAAAAAAAAAAAAAAAAAAAAAAAAAAAAAAAAAAAAAAAAAAAAAAAAAAAAAAAAAAAAAAAAAAAAAAAAAAAAAAAAAAAAAAAAAAAAAAAAAAAAAAAAAAAAAAAAAAAAAAAAAAAAAAAAAAAAAAAAAAAAAAAAAAAAAAAAAAAAAAAAAAAAAAAAAAAAAAAAAAAAAAAAAAAAAAAAAAAAAAAAAAAAAAAAAAAAAAAAAAAAAAAAAAAAAAAAAAAAAAAAAAAAAAAAAAAAAAAAAAAAAAAAAAAAAAAAAAAAAAAAAAAAAAAAAAAAAAAAAAAAAAAAAAAAAAAAAAAAAAAAAAAAAAAAAAAAAAAAAAAAAAAAAAAAAAAAAAAAAAAAAAAAAAAAAAAAAAAAAAAAAAAAAAAAAAAAAAAAAAAAAAAAAAAAAAAAAAAAAAAAAAAAAAAAAAAAAAAAAAAAAAAAAAAAAAAAAAAAAAAAAAAAAAAAAAAAAAAAAAAAAAAAAAAAAAAAAAAAAAAAAAAAAAAAAAAAAAAAAAAAAAAAAAAAAAAAAAAAAAAAAAAAAAAAAAAAAAAAAAAAAAAAAAAAAAAAAAAAAAAAAAAAAAAAAAAAAAAAAAAAAAAAAAAAAAAAAAAAAAAAAAAAAAAAAAAAAAAAAAAAAAAAAAAAAAAAAAAAAAAAAAAAAAAAAAAAAAAAAAAAAAAAAAAAAAAAAAAAAAAAAAAAAAAAAAAAAAAAAAAAAAAAAAAAAAAAAAAAAAAAAAAAAAAAAAAAAAAAAAAAAAAAAAAAAAAAAAAAAAAAAAAAAAAAAAAAAAAAAAAAAAAAAAAAAAAAAAAAAAAAAAAAAAAAAAAAAAAAAAAAAAAAAAAAAAAAAAAAAAAAAAAAAAAAAAAAAAAAAAAAAAAAAAAAAAAAAAAAAAAAAAAAAAAAAAAAAAAAAAAAAAAAAAAAAAAAAAAAAAAAAAAAAAAAAAAAAAAAAAAAAAAAAAAAAAAAAAAAAAAAAAAAAAAAAAAAAAAAAAAAAAAAAAAAAAAAAAAAAAAAAAAAAAAAAAAAAAAAAAAAAAAAAAAAAAAAAAAAAAAAAAAAAAAAAAAAAAAAAAAAAAAAAAAAAAAAAAAAAAAAAAAAAAAAAAAAAAAAAAAAAAAAAAAAAAAAAAAAAAAAAAAAAAAAAAAAAAAAAAAAAAAAAAAAAAAAAAAAAAAAAAAAAAAAAAAAAAAAAAAAAAAAAAAAAAAAAAAAAAAAAAAAAAAAAAAAAAAAAAAAAAAAAAAAAAAAAAAAAAAAAAAAAAAAAAAAAAAAAAAAAAAAAAAAAAAAAAAAAAAAAAAAAAAAAAAAAAAAAAAAAAAAAAAAAAAAAAAAAAAAAAAAAAAAAAAAAAAAAAAAAAAAAAAAAAAAAAAAAAAAAAAAAAAAAAAAAAAAAAAAAAAAAAAAAAAAAAAAAAAAAAAAAAAAAAAAAAAAAAAAAAAAAAAAAAAAAAAAAAAAAAAAAAAAAAAAAAAAAAAAAAAAAAAAAAAAAAAAAAAAAAAAAAAAAAAAAAAAAAAAAAAAAAAAAAAAAAAAAAAAAAAAAAAAAAAAAAAAAAAAAAAAAAAAAAAAAAAAAAAAAAAAAAAAAAAAAAAAAAAAAAAAAAAAAAAAAAAAAAAAAAAAAAAAAAAAAAAAAAAAAAAAAAAAAAAAAAAAAAAAAAAAAAAAAAAAAAAAAAAAAAAAAAAAAAAAAAAAAAAAAAAAAAAAAAAAAAAAAAAAAAAAAAAAAAAAAAAAAAAAAAAAAAAAAAAAAAAAAAAAAAAAAAAAAAAAAAAAAAAAAAAAAAAAAAAAAAAAAAAAAAAAAAAAAAAAAAAAAAAAAAAAAAAAAAAAAAAAAAAAAAAAAAAAAAAAAAAAAAAAAAAAAAAAAAAAAAAAAAAAAAAAAAAAAAAAAAAAAAAAAAAAAAAAAAAAAAAAAAAAAAAAAAAAAAAAAAAAAAAAAAAAAAAAAAAAAAAAAAAAAAAAAAAAAAAAAAAAAAAAAAAAAAAAAAAAAAAAAAAAAAAAAAAAAAAAAAAAAAAAAAAAAAAAAAAAAAAAAAAAAAAAAAAAAAAAAAAAAAAAAAAAAAAAAAAAAAAAAAAAAAAAAAAAAAAAAAAAAAAAAAAAAAAAAAAAAAAAAAAAAAAAAAAAAAAAAAAAAAAAAAAAAAAAAAAAAAAAAAAAAAAAAAAAAAAAAAAAAAAAAAAAAAAAAAAAAAAAAAAAAAAAAAAAAAAAAAAAAAAAAAAAAAAAAAAAAAAAAAAAAAAAAAAAAAAAAAAAAAAAAAAAAAAAAAAAAAAAAAAAAAAAAAAAAAAAAAAAAAAAAAAAAAAAAAAAAAAAAAAAAAAAAAAAAAAAAAAAAAAAAAAAAAAAAAAAAAAAAAAAAAAAAAAAAAAAAAAAAAAAAAAAAAAAAAAAAAAAAAAAAAAAAAAAAAAAAAAAAAAAAAAAAAAAAAAAAAAAAAAAAAAAAAAAAAAAAAAAAAAAAAAAAAAAAAAAAAAAAAAAAAAAAAAAAAAAAAAAAAAAAAAAAAAAAAAAAAAAAAAAAAAAAAAAAAAAAAAAAAAAAAAAAAAAAAAAAAAAAAAAAAAAAAAAAAAAAAAAAAAAAAAAAAAAAAAAAAAAAAAAAAAAAAAAAAAAAAAAAAAAAAAAAAAAAAAAAAAAAAAAAAAAAAAAAAAAAAAAAAAAAAAAAAAAAAAAAAAAAAAAAAAAAAAAAAAAAAAAAAAAAAAAAAAAAAAAAAAAAAAAAAAAAAAAAAAAAAAAAAAAAAAAAAAAAAAAAAAAAAAAAAAAAAAAAAAAAAAAAAAAAAAAAAAAAAAAAAAAAAAAAAAAAAAAAAAAAAAAAAAAAAAAAAAAAAAAAAAAAAAAAAAAAAAAAAAAAAAAAAAAAAAAAAAAAAAAAAAAAAAAAAAAAAAAAAAAAAAAAAAAAAAAAAAAAAAAAAAAAAAAAAAAAAAAAAAAAAAAAAAAAAAAAAAAAAAAAAAAAAAAAAAAAAAAAAAAAAAAAAAAAAAAAAAAAAAAAAAAAAAAAAAAAAAAAAAAAAAAAAAAAAAAAAAAAAAAAAAAAAAAAAAAAAAAAAAAAAAAAAAAAAAAAAAAAAAAAAAAAAAAAAAAAAAAAAAAAAAAAAAAAAAAAAAAAAAAAAAAAAAAAAAAAAAAAAAAAAAAAAAAAAAAAAAAAAAAAAAAAAAAAAAAAAAAAAAAAAAAAAAAAAAAAAAAAAAAAAAAAAAAAAAAAAAAAAAAAAAAAAAAAAAAAAAAAAAAAAAAAAAAAAAAAAAAAAAAAAAAAAAAAAAAAAAAAAAAAAAAAAAAAAAAAAAAAAAAAAAAAAAAAAAAAAAAAAAAAAAAAAAAAAAAAAAAAAAAAAAAAAAAAAAAAAAAAAAAAAAAAAAAAAAAAAAAAAAAAAAAAAAAAAAAAAAAAAAAAAAAAAAAAAAAAAAAAAAAAAAAAAAAAAAAAAAAAAAAAAAAAAAAAAAAAAAAAAAAAAAAAAAAAAAAAAAAAAAAAAAAAAAAAAAAAAAAAAAAAAAAAAAAAAAAAAAAAAAAAAAAAAAAAAAAAAAAAAAAAAAAAAAAAAAAAAAAAAAAAAAAAAAAAAAAAAAAAAAAAAAAAAAAAAAAAAAAAAAAAAAAAAAAAAAAAAAAAAAAAAAAAAAAAAAAAAAAAAAAAAAAAAAAAAAAAAAAAAAAAAAAAAAAAAAAAAAAAAAAAAAAAAAAAAAAAAAAAAAAAAAAAAAAAAAAAAAAAAAAAAAAAAAAAAAAAAAAAAAAAAAAAAAAAAAAAAAAAAAAAAAAAAAAAAAAAAAAAAAAAAAAAAAAAAAAAAAAAAAAAAAAAAAAAAAAAAAAAAAAAAAAAAAAAAAAAAAAAAAAAAAAAAAAAAAAAAAAAAAAAAAAAAAAAAAAAAAAAAAAAAAAAAAAAAAAAAAAAAAAAAAAAAAAAAAAAAAAAAAAAAAAAAAAAAAAAAAAAAAAAAAAAAAAAAAAAPZYQCefzFlano6RB2s/v3x23pcuJ8a4m21NDCWv3y12zvJpIVtYel3F387QysZ/3c6H/BoZB/XKHWW3ZR9wp8gohXw=</c2pa:manifest></metadata>
<rect width="600" height="750" fill="#F2B134"/>
<circle cx="300" cy="235" r="235" fill="#000" opacity="0.08"/>
<path d="M110 750 Q120 560 300 555 Q480 560 490 750 Z" fill="#D9452F"/><ellipse cx="300" cy="330" rx="150" ry="175" fill="#0E2B2B"/><path d="M110 320 Q120 120 300 120 Q480 120 490 320 L480 650 Q430 500 430 330 L170 330 Q170 500 120 650 Z" fill="#D9452F"/><ellipse cx="300" cy="345" rx="150" ry="170" fill="#0E2B2B" opacity="0"/><circle cx="250" cy="330" r="10" fill="#0E2B2B"/><circle cx="352" cy="330" r="10" fill="#0E2B2B"/><path d="M258 405 Q300 440 344 405" stroke="#0E2B2B" stroke-width="9" fill="none" stroke-linecap="round"/>
<path d="M0 690 Q75 655 150 690 T300 690 T450 690 T600 690 L600 750 L0 750 Z" fill="#F2B134" opacity="0.55"/>
<rect x="315" y="649" width="35" height="1.4" fill="#000" opacity="0.05"/><rect x="588" y="319" width="11" height="1.4" fill="#000" opacity="0.05"/><rect x="542" y="145" width="16" height="1.4" fill="#000" opacity="0.05"/><rect x="36" y="91" width="18" height="1.4" fill="#000" opacity="0.05"/><rect x="162" y="70" width="32" height="1.4" fill="#000" opacity="0.05"/><rect x="359" y="308" width="36" height="1.4" fill="#000" opacity="0.05"/><rect x="109" y="354" width="24" height="1.4" fill="#000" opacity="0.05"/><rect x="206" y="106" width="23" height="1.4" fill="#000" opacity="0.05"/><rect x="11" y="582" width="10" height="1.4" fill="#000" opacity="0.05"/><rect x="168" y="618" width="15" height="1.4" fill="#000" opacity="0.05"/><rect x="56" y="133" width="25" height="1.4" fill="#000" opacity="0.05"/><rect x="522" y="742" width="25" height="1.4" fill="#000" opacity="0.05"/><rect x="316" y="193" width="39" height="1.4" fill="#000" opacity="0.05"/><rect x="360" y="727" width="31" height="1.4" fill="#000" opacity="0.05"/><rect x="278" y="649" width="25" height="1.4" fill="#000" opacity="0.05"/><rect x="391" y="384" width="28" height="1.4" fill="#000" opacity="0.05"/><rect x="218" y="3" width="38" height="1.4" fill="#000" opacity="0.05"/><rect x="463" y="206" width="19" height="1.4" fill="#000" opacity="0.05"/><rect x="593" y="126" width="31" height="1.4" fill="#000" opacity="0.05"/><rect x="171" y="526" width="21" height="1.4" fill="#000" opacity="0.05"/><rect x="83" y="527" width="35" height="1.4" fill="#000" opacity="0.05"/><rect x="71" y="211" width="39" height="1.4" fill="#000" opacity="0.05"/><rect x="487" y="82" width="39" height="1.4" fill="#000" opacity="0.05"/><rect x="421" y="24" width="17" height="1.4" fill="#000" opacity="0.05"/><rect x="401" y="16" width="33" height="1.4" fill="#000" opacity="0.05"/><rect x="12" y="136" width="8" height="1.4" fill="#000" opacity="0.05"/><rect x="345" y="349" width="10" height="1.4" fill="#000" opacity="0.05"/><rect x="443" y="30" width="20" height="1.4" fill="#000" opacity="0.05"/><rect x="266" y="250" width="15" height="1.4" fill="#000" opacity="0.05"/><rect x="92" y="209" width="31" height="1.4" fill="#000" opacity="0.05"/><rect x="187" y="436" width="26" height="1.4" fill="#000" opacity="0.05"/><rect x="6" y="533" width="11" height="1.4" fill="#000" opacity="0.05"/><rect x="204" y="158" width="28" height="1.4" fill="#000" opacity="0.05"/><rect x="423" y="648" width="37" height="1.4" fill="#000" opacity="0.05"/><rect x="291" y="94" width="13" height="1.4" fill="#000" opacity="0.05"/><rect x="376" y="179" width="36" height="1.4" fill="#000" opacity="0.05"/><rect x="506" y="394" width="34" height="1.4" fill="#000" opacity="0.05"/><rect x="272" y="212" width="25" height="1.4" fill="#000" opacity="0.05"/><rect x="47" y="532" width="33" height="1.4" fill="#000" opacity="0.05"/><rect x="337" y="521" width="31" height="1.4" fill="#000" opacity="0.05"/><rect x="349" y="33" width="30" height="1.4" fill="#000" opacity="0.05"/><rect x="520" y="607" width="7" height="1.4" fill="#000" opacity="0.05"/><rect x="514" y="201" width="7" height="1.4" fill="#000" opacity="0.05"/><rect x="256" y="104" width="36" height="1.4" fill="#000" opacity="0.05"/><rect x="341" y="722" width="39" height="1.4" fill="#000" opacity="0.05"/><rect x="54" y="464" width="26" height="1.4" fill="#000" opacity="0.05"/><rect x="90" y="501" width="18" height="1.4" fill="#000" opacity="0.05"/><rect x="428" y="194" width="34" height="1.4" fill="#000" opacity="0.05"/><rect x="183" y="134" width="18" height="1.4" fill="#000" opacity="0.05"/><rect x="547" y="141" width="35" height="1.4" fill="#000" opacity="0.05"/><rect x="102" y="685" width="38" height="1.4" fill="#000" opacity="0.05"/><rect x="135" y="594" width="28" height="1.4" fill="#000" opacity="0.05"/><rect x="450" y="445" width="30" height="1.4" fill="#000" opacity="0.05"/><rect x="348" y="398" width="35" height="1.4" fill="#000" opacity="0.05"/><rect x="517" y="209" width="31" height="1.4" fill="#000" opacity="0.05"/><rect x="520" y="313" width="31" height="1.4" fill="#000" opacity="0.05"/><rect x="296" y="134" width="29" height="1.4" fill="#000" opacity="0.05"/><rect x="248" y="636" width="28" height="1.4" fill="#000" opacity="0.05"/><rect x="445" y="714" width="31" height="1.4" fill="#000" opacity="0.05"/><rect x="456" y="18" width="32" height="1.4" fill="#000" opacity="0.05"/><rect x="43" y="90" width="12" height="1.4" fill="#000" opacity="0.05"/><rect x="333" y="650" width="38" height="1.4" fill="#000" opacity="0.05"/><rect x="203" y="4" width="36" height="1.4" fill="#000" opacity="0.05"/><rect x="226" y="30" width="31" height="1.4" fill="#000" opacity="0.05"/><rect x="448" y="352" width="28" height="1.4" fill="#000" opacity="0.05"/><rect x="455" y="129" width="25" height="1.4" fill="#000" opacity="0.05"/><rect x="447" y="705" width="25" height="1.4" fill="#000" opacity="0.05"/><rect x="120" y="174" width="14" height="1.4" fill="#000" opacity="0.05"/><rect x="511" y="452" width="30" height="1.4" fill="#000" opacity="0.05"/><rect x="140" y="439" width="18" height="1.4" fill="#000" opacity="0.05"/>
</svg>