<svg xmlns="http://www.w3.org/2000/svg" viewBox="0 0 600 750" width="600" height="750" role="img" aria-label="Retrato ilustrado de jorge tamarindo" xmlns:c2pa="http://c2pa.org/manifest"><metadata><c2pa:manifest>AAAWgmp1bWIAAAAeanVtZGMycGEAEQAQgAAAqgA4m3EDYzJwYQAAABZcanVtYgAAAEdqdW1kYzJtYQARABCAAACqADibcQN1cm46YzJwYTo3YzY1OGRiZC0xMGQ3LTRmMTktYWNlZC1kZTFkZTU3YTU0ZTMAAAADl2p1bWIAAAApanVtZGMyYXMAEQAQgAAAqgA4m3EDYzJwYS5hc3NlcnRpb25zAAAAALxqdW1iAAAARGp1bWRjYm9yABEAEIAAAKoAOJtxE2MycGEuaW5ncmVkaWVudC52MwAAAAAYYzJzaEkN5/bkjczr0oM9P6ESfFIAAABwY2JvcqNpZGM6Zm9ybWF0bWltYWdlL3N2Zyt4bWxqaW5zdGFuY2VJRHgseG1wOmlpZDo5YzczOGZiOC0yNjBmLTQ5ZjYtOGY4ZC1hYjk0MzYzN2ZhZGRscmVsYXRpb25zaGlwaHBhcmVudE9mAAAB4mp1bWIAAABBanVtZGNib3IAEQAQgAAAqgA4m3ETYzJwYS5hY3Rpb25zLnYyAAAAABhjMnNoXtTV6GMrGX6ywFsFAfQLpQAAAZljYm9yomdhY3Rpb25zgqJmYWN0aW9ua2MycGEub3BlbmVkanBhcmFtZXRlcnOha2luZ3JlZGllbnRzgaJjdXJseC1zZWxmI2p1bWJmPWMycGEuYXNzZXJ0aW9ucy9jMnBhLmluZ3JlZGllbnQudjNkaGFzaFggr51pdujP0AHlHIVKfrZEy+zfMyEWp3D93GhdWDAHd26kZmFjdGlvbngdY29tLmFudGhyb3BpYy5jbGF1ZGUucHJvdmlkZWRqcGFyYW1ldGVyc6F4H2NvbS5hbnRocm9waWMub3JpZ2luLWNvbmZpZGVuY2VndW5rbm93bmtkZXNjcmlwdGlvbnhmQ2xhdWRlIHByb3ZpZGVkIHRoaXMgZmlsZSBhdCB0aGUgcmVxdWVzdCBvZiBhIHVzZXIgYW5kIG1heSBoYXZlIGNyZWF0ZWQgb3IgbW9kaWZpZWQgdGhlIGZpbGUgY29udGVudHMubXNvZnR3YXJlQWdlbnShZG5hbWVmQ2xhdWRlcmFsbEFjdGlvbnNJbmNsdWRlZPUAAADIanVtYgAAAEBqdW1kY2JvcgARABCAAACqADibcRNjMnBhLmhhc2guZGF0YQAAAAAYYzJzaDUb94a4WiP+96H3lUdW1i8AAACAY2JvcqVjYWxnZnNoYTI1NmNwYWRNAAAAAAAAAAAAAAAAAGRoYXNoWCCWz8HmifZmjFrKXC0tTGVshwWJ/Iw6SgG8Ot2p7IB2DGRuYW1lbmp1bWJmIG1hbmlmZXN0amV4Y2x1c2lvbnOBomVzdGFydBjTZmxlbmd0aBkeBAAAAj5qdW1iAAAAJ2p1bWRjMmNsABEAEIAAAKoAOJtxA2MycGEuY2xhaW0udjIAAAACD2Nib3KlY2FsZ2ZzaGEyNTZpc2lnbmF0dXJleE1zZWxmI2p1bWJmPS9jMnBhL3VybjpjMnBhOjdjNjU4ZGJkLTEwZDctNGYxOS1hY2VkLWRlMWRlNTdhNTRlMy9jMnBhLnNpZ25hdHVyZWppbnN0YW5jZUlEeCx4bXA6aWlkOjdiZjZkODY2LTFhZGYtNDQxNi04MTIyLTBjMTA1MjcwN2UwYnJjcmVhdGVkX2Fzc2VydGlvbnODomN1cmx4LXNlbGYjanVtYmY9YzJwYS5hc3NlcnRpb25zL2MycGEuaW5ncmVkaWVudC52M2RoYXNoWCCvnWl26M/QAeUchUp+tkTL7N8zIRancP3caF1YMAd3bqJjdXJseCpzZWxmI2p1bWJmPWMycGEuYXNzZXJ0aW9ucy9jMnBhLmFjdGlvbnMudjJkaGFzaFgg2cw/gnv/0i67hM8STf6ql66dhZ79LJcnxx4OXDPJPJiiY3VybHgpc2VsZiNqdW1iZj1jMnBhLmFzc2VydGlvbnMvYzJwYS5oYXNoLmRhdGFkaGFzaFggEfMyGQe5QyVifHWD845Hic5CC6wEBJfpRR1tfckwBpl0Y2xhaW1fZ2VuZXJhdG9yX2luZm+jZG5hbWVvQW50aHJvcGljIEZpbGVzZ3ZlcnNpb25lMS4wLjBrc3BlY1ZlcnNpb25lMi40LjAAABA4anVtYgAAAChqdW1kYzJjcwARABCAAACqADibcQNjMnBhLnNpZ25hdHVyZQAAABAIY2JvctKEWQISogEmGCFZAgowggIGMIIBjaADAgECAhRA5aAK7sI50L64g/oGQgU9Z1UTADAKBggqhkjOPQQDAzBJMRcwFQYDVQQKEw5BbnRocm9waWMsIFBCQzEuMCwGA1UEAxMlQW50aHJvcGljIENvbnRlbnQgQ3JlZGVudGlhbHMgUm9vdCBDQTAeFw0yNjA4MDcxODQzNTZaFw0yODA4MDYxOTQzNTZaMEQxFzAVBgNVBAoTDkFudGhyb3BpYywgUEJDMSkwJwYDVQQDEyBBbnRocm9waWMgQ2xhdWRlIENvbnRlbnQgU2lnbmluZzBZMBMGByqGSM49AgEGCCqGSM49AwEHA0IABJh6CmvLUBgFFNU0vUKlOVtE6djd17L5SuwX0LemFisBM3dkd/3cyjxFA3Qo5S46fX0/ihY0VZ7mfb9KF703t5OjWDBWMA4GA1UdDwEB/wQEAwIHgDAVBgNVHSUEDjAMBgorBgEEAYPoXgIBMAwGA1UdEwEB/wQCMAAwHwYDVR0jBBgwFoAUzlHiBIFOZFsj+OPEz5o+nMHXXMIwCgYIKoZIzj0EAwMDZwAwZAIwMXMdFJ4BetLLVY7ORuE9noqbbAZOZn/aArXyTwFAZfKrPzxF2vPoJNf1+UCdg1XGAjBwX1zd9WGqYkqmL5SFqw1QySjr1zJfpJM9+1rdDwSPLMOPOjKuiXjoU/pUUeG9RwmhY3BhZFkNngAAAAAAAAAAAAAAAAAAAAAAAAAAAAAAAAAAAAAAAAAAAAAAAAAAAAAAAAAAAAAAAAAAAAAAAAAAAAAAAAAAAAAAAAAAAAAAAAAAAAAAAAAAAAAAAAAAAAAAAAAAAAAAAAAAAAAAAAAAAAAAAAAAAAAAAAAAAAAAAAAAAAAAAAAAAAAAAAAAAAAAAAAAAAAAAAAAAAAAAAAAAAAAAAAAAAAAAAAAAAAAAAAAAAAAAAAAAAAAAAAAAAAAAAAAAAAAAAAAAAAAAAAAAAAAAAAAAAAAAAAAAAAAAAAAAAAAAAAAAAAAAAAAAAAAAAAAAAAAAAAAAAAAAAAAAAAAAAAAAAAAAAAAAAAAAAAAAAAAAAAAAAAAAAAAAAAAAAAAAAAAAAAAAAAAAAAAAAAAAAAAAAAAAAAAAAAAAAAAAAAAAAAAAAAAAAAAAAAAAAAAAAAAAAAAAAAAAAAAAAAAAAAAAAAAAAAAAAAAAAAAAAAAAAAAAAAAAAAAAAAAAAAAAAAAAAAAAAAAAAAAAAAAAAAAAAAAAAAAAAAAAAAAAAAAAAAAAAAAAAAAAAAAAAAAAAAAAAAAAAAAAAAAAAAAAAAAAAAAAAAAAAAAAAAAAAAAAAAAAAAAAAAAAAAAAAAAAAAAAAAAAAAAAAAAAAAAAAAAAAAAAAAAAAAAAAAAAAAAAAAAAAAAAAAAAAAAAAAAAAAAAAAAAAAAAAAAAAAAAAAAAAAAAAAAAAAAAAAAAAAAAAAAAAAAAAAAAAAAAAAAAAAAAAAAAAAAAAAAAAAAAAAAAAAAAAAAAAAAAAAAAAAAAAAAAAAAAAAAAAAAAAAAAAAAAAAAAAAAAAAAAAAAAAAAAAAAAAAAAAAAAAAAAAAAAAAAAAAAAAAAAAAAAAAAAAAAAAAAAAAAAAAAAAAAAAAAAAAAAAAAAAAAAAAAAAAAAAAAAAAAAAAAAAAAAAAAAAAAAAAAAAAAAAAAAAAAAAAAAAAAAAAAAAAAAAAAAAAAAAAAAAAAAAAAAAAAAAAAAAAAAAAAAAAAAAAAAAAAAAAAAAAAAAAAAAAAAAAAAAAAAAAAAAAAAAAAAAAAAAAAAAAAAAAAAAAAAAAAAAAAAAAAAAAAAAAAAAAAAAAAAAAAAAAAAAAAAAAAAAAAAAAAAAAAAAAAAAAAAAAAAAAAAAAAAAAAAAAAAAAAAAAAAAAAAAAAAAAAAAAAAAAAAAAAAAAAAAAAAAAAAAAAAAAAAAAAAAAAAAAAAAAAAAAAAAAAAAAAAAAAAAAAAAAAAAAAAAAAAAAAAAAAAAAAAAAAAAAAAAAAAAAAAAAAAAAAAAAAAAAAAAAAAAAAAAAAAAAAAAAAAAAAAAAAAAAAAAAAAAAAAAAAAAAAAAAAAAAAAAAAAAAAAAAAAAAAAAAAAAAAAAAAAAAAAAAAAAAAAAAAAAAAAAAAAAAAAAAAAAAAAAAAAAAAAAAAAAAAAAAAAAAAAAAAAAAAAAAAAAAAAAAAAAAAAAAAAAAAAAAAAAAAAAAAAAAAAAAAAAAAAAAAAAAAAAAAAAAAAAAAAAAAAAAAAAAAAAAAAAAAAAAAAAAAAAAAAAAAAAAAAAAAAAAAAAAAAAAAAAAAAAAAAAAAAAAAAAAAAAAAAAAAAAAAAAAAAAAAAAAAAAAAAAAAAAAAAAAAAAAAAAAAAAAAAAAAAAAAAAAAAAAAAAAAAAAAAAAAAAAAAAAAAAAAAAAAAAAAAAAAAAAAAAAAAAAAAAAAAAAAAAAAAAAAAAAAAAAAAAAAAAAAAAAAAAAAAAAAAAAAAAAAAAAAAAAAAAAAAAAAAAAAAAAAAAAAAAAAAAAAAAAAAAAAAAAAAAAAAAAAAAAAAAAAAAAAAAAAAAAAAAAAAAAAAAAAAAAAAAAAAAAAAAAAAAAAAAAAAAAAAAAAAAAAAAAAAAAAAAAAAAAAAAAAAAAAAAAAAAAAAAAAAAAAAAAAAAAAAAAAAAAAAAAAAAAAAAAAAAAAAAAAAAAAAAAAAAAAAAAAAAAAAAAAAAAAAAAAAAAAAAAAAAAAAAAAAAAAAAAAAAAAAAAAAAAAAAAAAAAAAAAAAAAAAAAAAAAAAAAAAAAAAAAAAAAAAAAAAAAAAAAAAAAAAAAAAAAAAAAAAAAAAAAAAAAAAAAAAAAAAAAAAAAAAAAAAAAAAAAAAAAAAAAAAAAAAAAAAAAAAAAAAAAAAAAAAAAAAAAAAAAAAAAAAAAAAAAAAAAAAAAAAAAAAAAAAAAAAAAAAAAAAAAAAAAAAAAAAAAAAAAAAAAAAAAAAAAAAAAAAAAAAAAAAAAAAAAAAAAAAAAAAAAAAAAAAAAAAAAAAAAAAAAAAAAAAAAAAAAAAAAAAAAAAAAAAAAAAAAAAAAAAAAAAAAAAAAAAAAAAAAAAAAAAAAAAAAAAAAAAAAAAAAAAAAAAAAAAAAAAAAAAAAAAAAAAAAAAAAAAAAAAAAAAAAAAAAAAAAAAAAAAAAAAAAAAAAAAAAAAAAAAAAAAAAAAAAAAAAAAAAAAAAAAAAAAAAAAAAAAAAAAAAAAAAAAAAAAAAAAAAAAAAAAAAAAAAAAAAAAAAAAAAAAAAAAAAAAAAAAAAAAAAAAAAAAAAAAAAAAAAAAAAAAAAAAAAAAAAAAAAAAAAAAAAAAAAAAAAAAAAAAAAAAAAAAAAAAAAAAAAAAAAAAAAAAAAAAAAAAAAAAAAAAAAAAAAAAAAAAAAAAAAAAAAAAAAAAAAAAAAAAAAAAAAAAAAAAAAAAAAAAAAAAAAAAAAAAAAAAAAAAAAAAAAAAAAAAAAAAAAAAAAAAAAAAAAAAAAAAAAAAAAAAAAAAAAAAAAAAAAAAAAAAAAAAAAAAAAAAAAAAAAAAAAAAAAAAAAAAAAAAAAAAAAAAAAAAAAAAAAAAAAAAAAAAAAAAAAAAAAAAAAAAAAAAAAAAAAAAAAAAAAAAAAAAAAAAAAAAAAAAAAAAAAAAAAAAAAAAAAAAAAAAAAAAAAAAAAAAAAAAAAAAAAAAAAAAAAAAAAAAAAAAAAAAAAAAAAAAAAAAAAAAAAAAAAAAAAAAAAAAAAAAAAAAAAAAAAAAAAAAAAAAAAAAAAAAAAAAAAAAAAAAAAAAAAAAAAAAAAAAAAAAAAAAAAAAAAAAAAAAAAAAAAAAAAAAAAAAAAAAAAAAAAAAAAAAAAAAAAAAAAAAAAAAAAAAAAAAAAAAAAAAAAAAAAAAAAAAAAAAAAAAAAAAAAAAAAAAAAAAAAAAAAAAAAAAAAAAAAAAAAAAAAAAAAAAAAAAAAAAAAAAAAAAAAAAAAAAAAAAAAAAAAAAAAAAAAAAAAAAAAAAAAAAAAAAAAAAAAAAAAAAAAAAAAAAAAAAAAAAAAAAAAAAAAAAAAAAAAAAAAAAAAAAAAAAAAAAAAAAAAAAAAAAAAAAAAAAAAAAAAAAAAAAAAAAAAAAAAAAAAAAAAAAAAAAAAAAAAAAAAAAAAAAAAAAAAAAAAAAAAAAAAAAAAAAAAAAAAAAAAAAAAAAAAAAAAAAAAAAAAAAAAAAAAAAAAAAAAAAAAAAAAAAAAAAAAAAAAAAAAAAAAAAAAAAAAAAAAAAAAAAAAAAAAAAAAAAAAAAAAAAAAAAAAAAAAAAAAAAAAAAAAAAAAAAAAAAAAAAAAAAAAAAAAAAAAAAAAAAAAAAAAAAAAAAAAAAAAAAAAAAAAAAAAAAAAAAAAAAAAAAAAAAAAAAAAAAAAAAAAAAAAAAAAAAAAAAAAAAAAAAAAAAAAAAAAAAAAAAAAAAAAAAAAAAAAAAAAAAAAAAAAAAAAAAAAAAAAAAAAAAAAAAAAAAAAAAAAAAAAAAAAAAAAAAAAAAAAAAAAAAAAAAAAAAAAAAAAAAAAAAAAAAAAAAAAAAAAAAAAAAAAAAAAAAAAAAAAAAAAAAAAAAAAAAAAAAAAAAAAAAAAAAAAAAAAAAAAAAAAAAAAAAAAAAAAAAAAAAAAAAAAAAAAAAAAAAAAAAAAAAAAAAAAAAAAAAAAAAAAAAAAAAAAAAAAAAAAAAAAAAAAAAAAAAAAAAAAAAAAAAAAAAAAAAAAAAAAAAAAAAAAAAAAAAAAAAAAAAAAAAAAAAAAAAAAAAAAAAAAAAAAAAAAAAAAAAAAAAAAAAAAAAAAAAAAAAAAAAAAAAAAAAAAAAAAAAAAAAAAAAAAAAAAAAAAAAAAAAAAAAAAAAAAAAAAAAAAAAAAAAAAAAAAAAAAAAAAAAAAAAAAAAAAAAAAAAAAAAAAAAAAAAAAAAAAAAAAAAAAAAAAAAAAAAAAAAAAAAAAAAAAAAAAAAAAAAAAAAAAAAAAAAAAAAAAAAAAAAAAAAAAAAAAAAAAAAAAAAAAAAAAAAAAAAAAAAAAAAAAAAAAAAAAAAAAAAAAAAAAAAAAAAAAAAAAAAAAAAAAAAAAAAAAAAAAAAAAAAAAAAAAAAAAAAAAAAAAAAAAAAAAAAAAAAAAAAAAAAAAAAAAAAAAAAAAAAAAAAAAAAAAAAAAAAAAAAAAAAAAAAAAAAAAAAAAAAAAAAAAAAAAAAAAAAAAAAAAAAAAAAAAAAAAAAAAAAAAAAAAAAAAAAAAAAAAAAAAAAAAAAAAAAAAAAAAAAAAAAAAAAAAAAAAAAAAAAAAAAAAAAAAAAAAAAAAAAAAAAAAAAAAAAAAAAAAAAAAAAPZYQBnOFQjt/PfSPn54x1BWu8KV+OvEaQSmdHQ3FItOrVrkTxp01iJalPHCLjBo4FsZwUuHiHDs23h3aNX05MusHkY=</c2pa:manifest></metadata>
<rect width="600" height="750" fill="#3F7D5A"/>
<circle cx="300" cy="235" r="235" fill="#000" opacity="0.08"/>
<path d="M110 750 Q120 560 300 555 Q480 560 490 750 Z" fill="#F2B134"/><ellipse cx="300" cy="330" rx="150" ry="175" fill="#EFE3C2"/><path d="M150 320 Q155 165 300 165 Q445 165 450 320 Z" fill="#F2B134"/><path d="M165 380 Q175 590 300 600 Q425 590 435 380 Q400 470 300 470 Q200 470 165 380 Z" fill="#F2B134"/><ellipse cx="300" cy="345" rx="150" ry="170" fill="#EFE3C2" opacity="0"/><circle cx="250" cy="330" r="10" fill="#0E2B2B"/><circle cx="352" cy="330" r="10" fill="#0E2B2B"/><path d="M258 405 Q300 440 344 405" stroke="#0E2B2B" stroke-width="9" fill="none" stroke-linecap="round"/><path d="M258 405 Q300 430 344 405" stroke="#F2B134" stroke-width="9" fill="none" stroke-linecap="round"/>
<path d="M0 690 Q75 655 150 690 T300 690 T450 690 T600 690 L600 750 L0 750 Z" fill="#3F7D5A" opacity="0.55"/>
<rect x="542" y="674" width="23" height="1.4" fill="#000" opacity="0.05"/><rect x="233" y="370" width="40" height="1.4" fill="#000" opacity="0.05"/><rect x="173" y="632" width="8" height="1.4" fill="#000" opacity="0.05"/><rect x="144" y="441" width="35" height="1.4" fill="#000" opacity="0.05"/><rect x="247" y="219" width="11" height="1.4" fill="#000" opacity="0.05"/><rect x="388" y="576" width="19" height="1.4" fill="#000" opacity="0.05"/><rect x="383" y="720" width="30" height="1.4" fill="#000" opacity="0.05"/><rect x="80" y="140" width="9" height="1.4" fill="#000" opacity="0.05"/><rect x="327" y="477" width="33" height="1.4" fill="#000" opacity="0.05"/><rect x="425" y="161" width="40" height="1.4" fill="#000" opacity="0.05"/><rect x="78" y="256" width="37" height="1.4" fill="#000" opacity="0.05"/><rect x="220" y="242" width="38" height="1.4" fill="#000" opacity="0.05"/><rect x="353" y="542" width="36" height="1.4" fill="#000" opacity="0.05"/><rect x="170" y="630" width="13" height="1.4" fill="#000" opacity="0.05"/><rect x="355" y="112" width="27" height="1.4" fill="#000" opacity="0.05"/><rect x="81" y="599" width="14" height="1.4" fill="#000" opacity="0.05"/><rect x="5" y="683" width="26" height="1.4" fill="#000" opacity="0.05"/><rect x="547" y="672" width="40" height="1.4" fill="#000" opacity="0.05"/><rect x="555" y="165" width="23" height="1.4" fill="#000" opacity="0.05"/><rect x="438" y="223" width="23" height="1.4" fill="#000" opacity="0.05"/><rect x="325" y="189" width="34" height="1.4" fill="#000" opacity="0.05"/><rect x="430" y="117" width="37" height="1.4" fill="#000" opacity="0.05"/><rect x="42" y="520" width="38" height="1.4" fill="#000" opacity="0.05"/><rect x="259" y="745" width="15" height="1.4" fill="#000" opacity="0.05"/><rect x="321" y="598" width="14" height="1.4" fill="#000" opacity="0.05"/><rect x="563" y="436" width="17" height="1.4" fill="#000" opacity="0.05"/><rect x="91" y="6" width="39" height="1.4" fill="#000" opacity="0.05"/><rect x="3" y="254" width="38" height="1.4" fill="#000" opacity="0.05"/><rect x="63" y="409" width="16" height="1.4" fill="#000" opacity="0.05"/><rect x="49" y="277" width="23" height="1.4" fill="#000" opacity="0.05"/><rect x="323" y="714" width="19" height="1.4" fill="#000" opacity="0.05"/><rect x="436" y="23" width="18" height="1.4" fill="#000" opacity="0.05"/><rect x="63" y="12" width="37" height="1.4" fill="#000" opacity="0.05"/><rect x="203" y="51" width="38" height="1.4" fill="#000" opacity="0.05"/><rect x="331" y="519" width="31" height="1.4" fill="#000" opacity="0.05"/><rect x="91" y="186" width="20" height="1.4" fill="#000" opacity="0.05"/><rect x="538" y="325" width="36" height="1.4" fill="#000" opacity="0.05"/><rect x="202" y="85" width="35" height="1.4" fill="#000" opacity="0.05"/><rect x="125" y="18" width="13" height="1.4" fill="#000" opacity="0.05"/><rect x="104" y="532" width="9" height="1.4" fill="#000" opacity="0.05"/><rect x="573" y="599" width="15" height="1.4" fill="#000" opacity="0.05"/><rect x="545" y="701" width="15" height="1.4" fill="#000" opacity="0.05"/><rect x="36" y="282" width="10" height="1.4" fill="#000" opacity="0.05"/><rect x="56" y="236" width="38" height="1.4" fill="#000" opacity="0.05"/><rect x="501" y="210" width="38" height="1.4" fill="#000" opacity="0.05"/><rect x="478" y="529" width="37" height="1.4" fill="#000" opacity="0.05"/><rect x="509" y="494" width="30" height="1.4" fill="#000" opacity="0.05"/><rect x="222" y="245" width="16" height="1.4" fill="#000" opacity="0.05"/><rect x="589" y="166" width="36" height="1.4" fill="#000" opacity="0.05"/><rect x="78" y="654" width="35" height="1.4" fill="#000" opacity="0.05"/><rect x="326" y="86" width="30" height="1.4" fill="#000" opacity="0.05"/><rect x="280" y="138" width="35" height="1.4" fill="#000" opacity="0.05"/><rect x="484" y="436" width="13" height="1.4" fill="#000" opacity="0.05"/><rect x="577" y="556" width="18" height="1.4" fill="#000" opacity="0.05"/><rect x="144" y="515" width="35" height="1.4" fill="#000" opacity="0.05"/><rect x="233" y="522" width="9" height="1.4" fill="#000" opacity="0.05"/><rect x="184" y="454" width="38" height="1.4" fill="#000" opacity="0.05"/><rect x="250" y="283" width="14" height="1.4" fill="#000" opacity="0.05"/><rect x="94" y="424" width="39" height="1.4" fill="#000" opacity="0.05"/><rect x="514" y="522" width="15" height="1.4" fill="#000" opacity="0.05"/><rect x="209" y="519" width="27" height="1.4" fill="#000" opacity="0.05"/><rect x="580" y="466" width="13" height="1.4" fill="#000" opacity="0.05"/><rect x="396" y="260" width="16" height="1.4" fill="#000" opacity="0.05"/><rect x="545" y="386" width="34" height="1.4" fill="#000" opacity="0.05"/><rect x="134" y="605" width="17" height="1.4" fill="#000" opacity="0.05"/><rect x="152" y="556" width="9" height="1.4" fill="#000" opacity="0.05"/><rect x="233" y="112" width="28" height="1.4" fill="#000" opacity="0.05"/><rect x="524" y="605" width="12" height="1.4" fill="#000" opacity="0.05"/><rect x="463" y="360" width="27" height="1.4" fill="#000" opacity="0.05"/><rect x="60" y="672" width="40" height="1.4" fill="#000" opacity="0.05"/>
</svg>