<svg xmlns="http://www.w3.org/2000/svg" viewBox="0 0 600 750" width="600" height="750" role="img" aria-label="Retrato ilustrado de nara do cais" xmlns:c2pa="http://c2pa.org/manifest"><metadata><c2pa:manifest>AAAWgmp1bWIAAAAeanVtZGMycGEAEQAQgAAAqgA4m3EDYzJwYQAAABZcanVtYgAAAEdqdW1kYzJtYQARABCAAACqADibcQN1cm46YzJwYTo1NTg2MDYwNy03NWU5LTQ2YmEtOWY1Yy1hZWNjZDM2YzRmZmMAAAADl2p1bWIAAAApanVtZGMyYXMAEQAQgAAAqgA4m3EDYzJwYS5hc3NlcnRpb25zAAAAALxqdW1iAAAARGp1bWRjYm9yABEAEIAAAKoAOJtxE2MycGEuaW5ncmVkaWVudC52MwAAAAAYYzJzaKYOLHeY5oSbUkmoUS7oxlQAAABwY2JvcqNpZGM6Zm9ybWF0bWltYWdlL3N2Zyt4bWxqaW5zdGFuY2VJRHgseG1wOmlpZDplYjAyMjk4Ni1kZWZlLTRmMTgtOTk5MC05YTVhOTFmYzZlMDRscmVsYXRpb25zaGlwaHBhcmVudE9mAAAB4mp1bWIAAABBanVtZGNib3IAEQAQgAAAqgA4m3ETYzJwYS5hY3Rpb25zLnYyAAAAABhjMnNoEwKYZjYhmS7eJgrmyjq2IAAAAZljYm9yomdhY3Rpb25zgqJmYWN0aW9ua2MycGEub3BlbmVkanBhcmFtZXRlcnOha2luZ3JlZGllbnRzgaJjdXJseC1zZWxmI2p1bWJmPWMycGEuYXNzZXJ0aW9ucy9jMnBhLmluZ3JlZGllbnQudjNkaGFzaFggWpBg9flIb5Fajqb5BB/3c3CmHQ2pLijn5uULXiupPqqkZmFjdGlvbngdY29tLmFudGhyb3BpYy5jbGF1ZGUucHJvdmlkZWRqcGFyYW1ldGVyc6F4H2NvbS5hbnRocm9waWMub3JpZ2luLWNvbmZpZGVuY2VndW5rbm93bmtkZXNjcmlwdGlvbnhmQ2xhdWRlIHByb3ZpZGVkIHRoaXMgZmlsZSBhdCB0aGUgcmVxdWVzdCBvZiBhIHVzZXIgYW5kIG1heSBoYXZlIGNyZWF0ZWQgb3IgbW9kaWZpZWQgdGhlIGZpbGUgY29udGVudHMubXNvZnR3YXJlQWdlbnShZG5hbWVmQ2xhdWRlcmFsbEFjdGlvbnNJbmNsdWRlZPUAAADIanVtYgAAAEBqdW1kY2JvcgARABCAAACqADibcRNjMnBhLmhhc2guZGF0YQAAAAAYYzJzaK09e8l1Zj7thtb/lEKUqLsAAACAY2JvcqVjYWxnZnNoYTI1NmNwYWRNAAAAAAAAAAAAAAAAAGRoYXNoWCBMxy3DSpE4Ay3ix1gn/XSfNJc+VeI91uf1NHPn8LtiQ2RuYW1lbmp1bWJmIG1hbmlmZXN0amV4Y2x1c2lvbnOBomVzdGFydBjQZmxlbmd0aBkeBAAAAj5qdW1iAAAAJ2p1bWRjMmNsABEAEIAAAKoAOJtxA2MycGEuY2xhaW0udjIAAAACD2Nib3KlY2FsZ2ZzaGEyNTZpc2lnbmF0dXJleE1zZWxmI2p1bWJmPS9jMnBhL3VybjpjMnBhOjU1ODYwNjA3LTc1ZTktNDZiYS05ZjVjLWFlY2NkMzZjNGZmYy9jMnBhLnNpZ25hdHVyZWppbnN0YW5jZUlEeCx4bXA6aWlkOjA2MzgxMDRmLWRiMDAtNGQ5NC05ZTJiLTkxMTJiYzVkZDZiMnJjcmVhdGVkX2Fzc2VydGlvbnODomN1cmx4LXNlbGYjanVtYmY9YzJwYS5hc3NlcnRpb25zL2MycGEuaW5ncmVkaWVudC52M2RoYXNoWCBakGD1+UhvkVqOpvkEH/dzcKYdDakuKOfm5QteK6k+qqJjdXJseCpzZWxmI2p1bWJmPWMycGEuYXNzZXJ0aW9ucy9jMnBhLmFjdGlvbnMudjJkaGFzaFgg1fQpbwM0GALkzdR439n0ulGUkWLYMSvWCj5se8QJLxCiY3VybHgpc2VsZiNqdW1iZj1jMnBhLmFzc2VydGlvbnMvYzJwYS5oYXNoLmRhdGFkaGFzaFggHXwJz/uFqjsY/fmeNfZ131IuUl5zbtfzRVsw0CdWJxV0Y2xhaW1fZ2VuZXJhdG9yX2luZm+jZG5hbWVvQW50aHJvcGljIEZpbGVzZ3ZlcnNpb25lMS4wLjBrc3BlY1ZlcnNpb25lMi40LjAAABA4anVtYgAAAChqdW1kYzJjcwARABCAAACqADibcQNjMnBhLnNpZ25hdHVyZQAAABAIY2JvctKEWQISogEmGCFZAgowggIGMIIBjaADAgECAhRA5aAK7sI50L64g/oGQgU9Z1UTADAKBggqhkjOPQQDAzBJMRcwFQYDVQQKEw5BbnRocm9waWMsIFBCQzEuMCwGA1UEAxMlQW50aHJvcGljIENvbnRlbnQgQ3JlZGVudGlhbHMgUm9vdCBDQTAeFw0yNjA4MDcxODQzNTZaFw0yODA4MDYxOTQzNTZaMEQxFzAVBgNVBAoTDkFudGhyb3BpYywgUEJDMSkwJwYDVQQDEyBBbnRocm9waWMgQ2xhdWRlIENvbnRlbnQgU2lnbmluZzBZMBMGByqGSM49AgEGCCqGSM49AwEHA0IABJh6CmvLUBgFFNU0vUKlOVtE6djd17L5SuwX0LemFisBM3dkd/3cyjxFA3Qo5S46fX0/ihY0VZ7mfb9KF703t5OjWDBWMA4GA1UdDwEB/wQEAwIHgDAVBgNVHSUEDjAMBgorBgEEAYPoXgIBMAwGA1UdEwEB/wQCMAAwHwYDVR0jBBgwFoAUzlHiBIFOZFsj+OPEz5o+nMHXXMIwCgYIKoZIzj0EAwMDZwAwZAIwMXMdFJ4BetLLVY7ORuE9noqbbAZOZn/aArXyTwFAZfKrPzxF2vPoJNf1+UCdg1XGAjBwX1zd9WGqYkqmL5SFqw1QySjr1zJfpJM9+1rdDwSPLMOPOjKuiXjoU/pUUeG9RwmhY3BhZFkNngAAAAAAAAAAAAAAAAAAAAAAAAAAAAAAAAAAAAAAAAAAAAAAAAAAAAAAAAAAAAAAAAAAAAAAAAAAAAAAAAAAAAAAAAAAAAAAAAAAAAAAAAAAAAAAAAAAAAAAAAAAAAAAAAAAAAAAAAAAAAAAAAAAAAAAAAAAAAAAAAAAAAAAAAAAAAAAAAAAAAAAAAAAAAAAAAAAAAAAAAAAAAAAAAAAAAAAAAAAAAAAAAAAAAAAAAAAAAAAAAAAAAAAAAAAAAAAAAAAAAAAAAAAAAAAAAAAAAAAAAAAAAAAAAAAAAAAAAAAAAAAAAAAAAAAAAAAAAAAAAAAAAAAAAAAAAAAAAAAAAAAAAAAAAAAAAAAAAAAAAAAAAAAAAAAAAAAAAAAAAAAAAAAAAAAAAAAAAAAAAAAAAAAAAAAAAAAAAAAAAAAAAAAAAAAAAAAAAAAAAAAAAAAAAAAAAAAAAAAAAAAAAAAAAAAAAAAAAAAAAAAAAAAAAAAAAAAAAAAAAAAAAAAAAAAAAAAAAAAAAAAAAAAAAAAAAAAAAAAAAAAAAAAAAAAAAAAAAAAAAAAAAAAAAAAAAAAAAAAAAAAAAAAAAAAAAAAAAAAAAAAAAAAAAAAAAAAAAAAAAAAAAAAAAAAAAAAAAAAAAAAAAAAAAAAAAAAAAAAAAAAAAAAAAAAAAAAAAAAAAAAAAAAAAAAAAAAAAAAAAAAAAAAAAAAAAAAAAAAAAAAAAAAAAAAAAAAAAAAAAAAAAAAAAAAAAAAAAAAAAAAAAAAAAAAAAAAAAAAAAAAAAAAAAAAAAAAAAAAAAAAAAAAAAAAAAAAAAAAAAAAAAAAAAAAAAAAAAAAAAAAAAAAAAAAAAAAAAAAAAAAAAAAAAAAAAAAAAAAAAAAAAAAAAAAAAAAAAAAAAAAAAAAAAAAAAAAAAAAAAAAAAAAAAAAAAAAAAAAAAAAAAAAAAAAAAAAAAAAAAAAAAAAAAAAAAAAAAAAAAAAAAAAAAAAAAAAAAAAAAAAAAAAAAAAAAAAAAAAAAAAAAAAAAAAAAAAAAAAAAAAAAAAAAAAAAAAAAAAAAAAAAAAAAAAAAAAAAAAAAAAAAAAAAAAAAAAAAAAAAAAAAAAAAAAAAAAAAAAAAAAAAAAAAAAAAAAAAAAAAAAAAAAAAAAAAAAAAAAAAAAAAAAAAAAAAAAAAAAAAAAAAAAAAAAAAAAAAAAAAAAAAAAAAAAAAAAAAAAAAAAAAAAAAAAAAAAAAAAAAAAAAAAAAAAAAAAAAAAAAAAAAAAAAAAAAAAAAAAAAAAAAAAAAAAAAAAAAAAAAAAAAAAAAAAAAAAAAAAAAAAAAAAAAAAAAAAAAAAAAAAAAAAAAAAAAAAAAAAAAAAAAAAAAAAAAAAAAAAAAAAAAAAAAAAAAAAAAAAAAAAAAAAAAAAAAAAAAAAAAAAAAAAAAAAAAAAAAAAAAAAAAAAAAAAAAAAAAAAAAAAAAAAAAAAAAAAAAAAAAAAAAAAAAAAAAAAAAAAAAAAAAAAAAAAAAAAAAAAAAAAAAAAAAAAAAAAAAAAAAAAAAAAAAAAAAAAAAAAAAAAAAAAAAAAAAAAAAAAAAAAAAAAAAAAAAAAAAAAAAAAAAAAAAAAAAAAAAAAAAAAAAAAAAAAAAAAAAAAAAAAAAAAAAAAAAAAAAAAAAAAAAAAAAAAAAAAAAAAAAAAAAAAAAAAAAAAAAAAAAAAAAAAAAAAAAAAAAAAAAAAAAAAAAAAAAAAAAAAAAAAAAAAAAAAAAAAAAAAAAAAAAAAAAAAAAAAAAAAAAAAAAAAAAAAAAAAAAAAAAAAAAAAAAAAAAAAAAAAAAAAAAAAAAAAAAAAAAAAAAAAAAAAAAAAAAAAAAAAAAAAAAAAAAAAAAAAAAAAAAAAAAAAAAAAAAAAAAAAAAAAAAAAAAAAAAAAAAAAAAAAAAAAAAAAAAAAAAAAAAAAAAAAAAAAAAAAAAAAAAAAAAAAAAAAAAAAAAAAAAAAAAAAAAAAAAAAAAAAAAAAAAAAAAAAAAAAAAAAAAAAAAAAAAAAAAAAAAAAAAAAAAAAAAAAAAAAAAAAAAAAAAAAAAAAAAAAAAAAAAAAAAAAAAAAAAAAAAAAAAAAAAAAAAAAAAAAAAAAAAAAAAAAAAAAAAAAAAAAAAAAAAAAAAAAAAAAAAAAAAAAAAAAAAAAAAAAAAAAAAAAAAAAAAAAAAAAAAAAAAAAAAAAAAAAAAAAAAAAAAAAAAAAAAAAAAAAAAAAAAAAAAAAAAAAAAAAAAAAAAAAAAAAAAAAAAAAAAAAAAAAAAAAAAAAAAAAAAAAAAAAAAAAAAAAAAAAAAAAAAAAAAAAAAAAAAAAAAAAAAAAAAAAAAAAAAAAAAAAAAAAAAAAAAAAAAAAAAAAAAAAAAAAAAAAAAAAAAAAAAAAAAAAAAAAAAAAAAAAAAAAAAAAAAAAAAAAAAAAAAAAAAAAAAAAAAAAAAAAAAAAAAAAAAAAAAAAAAAAAAAAAAAAAAAAAAAAAAAAAAAAAAAAAAAAAAAAAAAAAAAAAAAAAAAAAAAAAAAAAAAAAAAAAAAAAAAAAAAAAAAAAAAAAAAAAAAAAAAAAAAAAAAAAAAAAAAAAAAAAAAAAAAAAAAAAAAAAAAAAAAAAAAAAAAAAAAAAAAAAAAAAAAAAAAAAAAAAAAAAAAAAAAAAAAAAAAAAAAAAAAAAAAAAAAAAAAAAAAAAAAAAAAAAAAAAAAAAAAAAAAAAAAAAAAAAAAAAAAAAAAAAAAAAAAAAAAAAAAAAAAAAAAAAAAAAAAAAAAAAAAAAAAAAAAAAAAAAAAAAAAAAAAAAAAAAAAAAAAAAAAAAAAAAAAAAAAAAAAAAAAAAAAAAAAAAAAAAAAAAAAAAAAAAAAAAAAAAAAAAAAAAAAAAAAAAAAAAAAAAAAAAAAAAAAAAAAAAAAAAAAAAAAAAAAAAAAAAAAAAAAAAAAAAAAAAAAAAAAAAAAAAAAAAAAAAAAAAAAAAAAAAAAAAAAAAAAAAAAAAAAAAAAAAAAAAAAAAAAAAAAAAAAAAAAAAAAAAAAAAAAAAAAAAAAAAAAAAAAAAAAAAAAAAAAAAAAAAAAAAAAAAAAAAAAAAAAAAAAAAAAAAAAAAAAAAAAAAAAAAAAAAAAAAAAAAAAAAAAAAAAAAAAAAAAAAAAAAAAAAAAAAAAAAAAAAAAAAAAAAAAAAAAAAAAAAAAAAAAAAAAAAAAAAAAAAAAAAAAAAAAAAAAAAAAAAAAAAAAAAAAAAAAAAAAAAAAAAAAAAAAAAAAAAAAAAAAAAAAAAAAAAAAAAAAAAAAAAAAAAAAAAAAAAAAAAAAAAAAAAAAAAAAAAAAAAAAAAAAAAAAAAAAAAAAAAAAAAAAAAAAAAAAAAAAAAAAAAAAAAAAAAAAAAAAAAAAAAAAAAAAAAAAAAAAAAAAAAAAAAAAAAAAAAAAAAAAAAAAAAAAAAAAAAAAAAAAAAAAAAAAAAAAAAAAAAAAAAAAAAAAAAAAAAAAAAAAAAAAAAAAAAAAAAAAAAAAAAAAAAAAAAAAAAAAAAAAAAAAAAAAAAAAAAAAAAAAAAAAAAAAAAAAAAAAAAAAAAAAAAAAAAAAAAAAAAAAAAAAAAAAAAAAAAAAAAAAAAAAAAAAAAAAAAAAAAAAAAAAAAAAAAAAAAAAAAAAAAAAAAAAAAAAAAAAAAAAAAAAAAAAAAAAAAAAAAAAAAAAAAAAAAAAAAAAAAAAAAAAAAAAAAAAAAAAAAAAAAAAAAAAAAAAAAAAAAAAAAAAAAAAAAAAAAAAAAAAAAAAAAAAAAAAAAAAAAAAAAAAAAAAAAAAAAAAAAAAAAAAAAAAAAAAAAAAAAAAAAAAAAAAAAAAAAAAAAAAAAAAAAAAAAAAAAAAAAAAAAAAAAAAAAAAAAAAAAAAAAAAAAAAAAAAAAAAAAAAAAAAAAAAAAAAAAAAAAAAAAAAAAAAAAAAAAAAAAAAAAAAAAAAAAAAAAAAAAAAAAAAAAAAAAAAAAAAAAAAAAAAAAAAAAAAAAAAAAAAAAAAAAAAAAAAAAAAAAAAAAAAAAAAAAAAAAAAAAAAAAAAAAAAAAAAAAAAAAAAAAAAAAAAAAAAAAAAAAAAAAAAAAAAAAAAAAAAAAAAAAAAAAAAAAAAAAAAAAAAAAAAAAAAAAAAAAAAAAAAAAAAAAAAAAAAAAAAAAAAAAAAAAAAAAAAAAAAAAAAAAAAAAAAAAAAAAAAAAAAAAAAAAAAAAAAAAAAAAAAAAAAAAAAAAAAAAAAAAAAAAAAAAAAAAAAAAAAAAAAAAAAAAAAAAAAAAAAAAAAAAAAAAAAAAAAAAAAAAAAAAAAAAAAAAAAAAAAAAAAAAAAAAAAAAAAAAAAAAAAAAAAAAAAAAAAAAAAAAAAAAAAAAAAAAAAAAAAAAAAAAAAAAAAAAAAAAAAAAAAAAAAAAAAAAAAAAAAAAAAAAAAAAAAAAAAAAAAAAAAAAAAAAAAAAAAAAAAAAAAAAAAAAAAAAAAAAAAAAAAAAAAAAAAAAAAAAAAAAAAAAAAAAAAAAAAAAAAAAAAAAAAAAAAAAAAAAAAAAAAAAAAAAAAAAAAAAAAAAAAAAAAAAAAAAAAAAAAAAAAAAAAAAAAAAAAAAAAAAAAAAAAAAAAAAAAAAAAAAAAAAAAAAAAAAAAAAPZYQAC+7Y/ZHGeVQcvWI0OnW6H4SXs4luLMlbgBboZYcq+U+17m5O7Ny8QW8Wc/3ooLAFW/s2jQmxIq93DHzD76W9E=</c2pa:manifest></metadata>
<rect width="600" height="750" fill="#E3826B"/>
<circle cx="300" cy="235" r="235" fill="#000" opacity="0.08"/>
<path d="M110 750 Q120 560 300 555 Q480 560 490 750 Z" fill="#2E6FA7"/><ellipse cx="300" cy="330" rx="150" ry="175" fill="#0E2B2B"/><circle cx="300" cy="150" r="62" fill="#2E6FA7"/><path d="M135 330 Q140 175 300 175 Q460 175 465 330 Z" fill="#2E6FA7"/><ellipse cx="300" cy="345" rx="150" ry="170" fill="#0E2B2B" opacity="0"/><circle cx="250" cy="330" r="10" fill="#0E2B2B"/><circle cx="352" cy="330" r="10" fill="#0E2B2B"/><path d="M258 405 Q300 440 344 405" stroke="#0E2B2B" stroke-width="9" fill="none" stroke-linecap="round"/>
<path d="M0 690 Q75 655 150 690 T300 690 T450 690 T600 690 L600 750 L0 750 Z" fill="#E3826B" opacity="0.55"/>
<rect x="40" y="304" width="37" height="1.4" fill="#000" opacity="0.05"/><rect x="164" y="507" width="35" height="1.4" fill="#000" opacity="0.05"/><rect x="503" y="109" width="28" height="1.4" fill="#000" opacity="0.05"/><rect x="72" y="633" width="18" height="1.4" fill="#000" opacity="0.05"/><rect x="566" y="104" width="33" height="1.4" fill="#000" opacity="0.05"/><rect x="291" y="48" width="23" height="1.4" fill="#000" opacity="0.05"/><rect x="345" y="95" width="16" height="1.4" fill="#000" opacity="0.05"/><rect x="253" y="682" width="15" height="1.4" fill="#000" opacity="0.05"/><rect x="576" y="708" width="39" height="1.4" fill="#000" opacity="0.05"/><rect x="366" y="637" width="6" height="1.4" fill="#000" opacity="0.05"/><rect x="23" y="343" width="22" height="1.4" fill="#000" opacity="0.05"/><rect x="551" y="160" width="33" height="1.4" fill="#000" opacity="0.05"/><rect x="379" y="271" width="6" height="1.4" fill="#000" opacity="0.05"/><rect x="598" y="271" width="22" height="1.4" fill="#000" opacity="0.05"/><rect x="101" y="662" width="28" height="1.4" fill="#000" opacity="0.05"/><rect x="69" y="29" width="12" height="1.4" fill="#000" opacity="0.05"/><rect x="28" y="422" width="26" height="1.4" fill="#000" opacity="0.05"/><rect x="306" y="265" width="7" height="1.4" fill="#000" opacity="0.05"/><rect x="425" y="614" width="22" height="1.4" fill="#000" opacity="0.05"/><rect x="292" y="64" width="25" height="1.4" fill="#000" opacity="0.05"/><rect x="529" y="297" width="34" height="1.4" fill="#000" opacity="0.05"/><rect x="104" y="119" width="27" height="1.4" fill="#000" opacity="0.05"/><rect x="492" y="444" width="12" height="1.4" fill="#000" opacity="0.05"/><rect x="524" y="417" width="35" height="1.4" fill="#000" opacity="0.05"/><rect x="109" y="514" width="20" height="1.4" fill="#000" opacity="0.05"/><rect x="176" y="745" width="39" height="1.4" fill="#000" opacity="0.05"/><rect x="410" y="385" width="26" height="1.4" fill="#000" opacity="0.05"/><rect x="258" y="103" width="36" height="1.4" fill="#000" opacity="0.05"/><rect x="585" y="39" width="40" height="1.4" fill="#000" opacity="0.05"/><rect x="466" y="449" width="19" height="1.4" fill="#000" opacity="0.05"/><rect x="503" y="279" width="31" height="1.4" fill="#000" opacity="0.05"/><rect x="110" y="104" width="18" height="1.4" fill="#000" opacity="0.05"/><rect x="18" y="716" width="6" height="1.4" fill="#000" opacity="0.05"/><rect x="113" y="711" width="24" height="1.4" fill="#000" opacity="0.05"/><rect x="584" y="129" width="30" height="1.4" fill="#000" opacity="0.05"/><rect x="464" y="312" width="31" height="1.4" fill="#000" opacity="0.05"/><rect x="457" y="90" width="29" height="1.4" fill="#000" opacity="0.05"/><rect x="337" y="122" width="16" height="1.4" fill="#000" opacity="0.05"/><rect x="524" y="298" width="8" height="1.4" fill="#000" opacity="0.05"/><rect x="25" y="59" width="26" height="1.4" fill="#000" opacity="0.05"/><rect x="273" y="314" width="36" height="1.4" fill="#000" opacity="0.05"/><rect x="474" y="594" width="19" height="1.4" fill="#000" opacity="0.05"/><rect x="358" y="365" width="38" height="1.4" fill="#000" opacity="0.05"/><rect x="148" y="673" width="38" height="1.4" fill="#000" opacity="0.05"/><rect x="122" y="43" width="12" height="1.4" fill="#000" opacity="0.05"/><rect x="524" y="201" width="39" height="1.4" fill="#000" opacity="0.05"/><rect x="160" y="369" width="32" height="1.4" fill="#000" opacity="0.05"/><rect x="75" y="746" width="13" height="1.4" fill="#000" opacity="0.05"/><rect x="439" y="446" width="27" height="1.4" fill="#000" opacity="0.05"/><rect x="385" y="285" width="28" height="1.4" fill="#000" opacity="0.05"/><rect x="569" y="56" width="10" height="1.4" fill="#000" opacity="0.05"/><rect x="145" y="180" width="34" height="1.4" fill="#000" opacity="0.05"/><rect x="347" y="190" width="19" height="1.4" fill="#000" opacity="0.05"/><rect x="76" y="285" width="8" height="1.4" fill="#000" opacity="0.05"/><rect x="301" y="511" width="14" height="1.4" fill="#000" opacity="0.05"/><rect x="451" y="152" width="34" height="1.4" fill="#000" opacity="0.05"/><rect x="116" y="550" width="17" height="1.4" fill="#000" opacity="0.05"/><rect x="227" y="676" width="28" height="1.4" fill="#000" opacity="0.05"/><rect x="287" y="393" width="18" height="1.4" fill="#000" opacity="0.05"/><rect x="468" y="548" width="30" height="1.4" fill="#000" opacity="0.05"/><rect x="59" y="525" width="19" height="1.4" fill="#000" opacity="0.05"/><rect x="157" y="311" width="6" height="1.4" fill="#000" opacity="0.05"/><rect x="423" y="448" width="23" height="1.4" fill="#000" opacity="0.05"/><rect x="200" y="644" width="8" height="1.4" fill="#000" opacity="0.05"/><rect x="104" y="243" width="29" height="1.4" fill="#000" opacity="0.05"/><rect x="105" y="469" width="8" height="1.4" fill="#000" opacity="0.05"/><rect x="222" y="201" width="19" height="1.4" fill="#000" opacity="0.05"/><rect x="433" y="555" width="31" height="1.4" fill="#000" opacity="0.05"/><rect x="513" y="484" width="13" height="1.4" fill="#000" opacity="0.05"/><rect x="236" y="620" width="33" height="1.4" fill="#000" opacity="0.05"/>
</svg>