<svg xmlns="http://www.w3.org/2000/svg" viewBox="0 0 1600 900" width="1600" height="900" preserveAspectRatio="xMidYMid slice" role="img" aria-label="Ilustracao do cais de Paraty ao entardecer">
  <defs>
    <linearGradient id="ceu" x1="0" y1="0" x2="0" y2="1">
      <stop offset="0%" stop-color="#123A3C"/><stop offset="55%" stop-color="#2E6FA7"/><stop offset="100%" stop-color="#E3826B"/>
    </linearGradient>
    <linearGradient id="agua" x1="0" y1="0" x2="0" y2="1">
      <stop offset="0%" stop-color="#2E6FA7"/><stop offset="100%" stop-color="#0E2B2B"/>
    </linearGradient>
  </defs>
  <rect width="1600" height="900" fill="url(#ceu)"/>
  <circle cx="1180" cy="470" r="90" fill="#F2B134" opacity="0.95"/>
  <g fill="#123A3C" opacity="0.8">
    <path d="M0 500 L170 350 L300 450 L420 330 L560 500 Z"/>
    <path d="M980 520 L1140 380 L1260 470 L1400 360 L1600 520 Z"/>
  </g>
  <g fill="#0E2B2B" opacity="0.55">
    <path d="M120 540 L330 400 L520 540 Z"/><path d="M1080 545 L1290 410 L1480 545 Z"/>
  </g>
  <rect y="540" width="1600" height="60" fill="#16403C"/>
  <g>
    <g fill="#EFE3C2">
      <rect x="90" y="455" width="150" height="90"/><rect x="250" y="475" width="120" height="70"/>
      <rect x="380" y="445" width="170" height="100"/><rect x="560" y="480" width="130" height="65"/>
      <rect x="700" y="440" width="180" height="105"/><rect x="890" y="470" width="140" height="75"/>
      <rect x="1040" y="450" width="160" height="95"/><rect x="1210" y="478" width="130" height="67"/>
      <rect x="1350" y="458" width="175" height="87"/>
    </g>
    <g fill="#D9452F">
      <path d="M80 458 L165 415 L250 458 Z"/><path d="M240 478 L310 445 L380 478 Z"/>
      <path d="M370 448 L465 405 L560 448 Z"/><path d="M550 483 L625 452 L700 483 Z"/>
      <path d="M690 443 L790 398 L890 443 Z"/><path d="M880 473 L960 440 L1040 473 Z"/>
      <path d="M1030 453 L1120 410 L1210 453 Z"/><path d="M1200 481 L1275 450 L1350 481 Z"/>
      <path d="M1340 461 L1437 418 L1535 461 Z"/>
    </g>
    <g fill="#0E2B2B" opacity="0.65">
      <rect x="120" y="495" width="26" height="50"/><rect x="185" y="495" width="26" height="50"/>
      <rect x="415" y="490" width="28" height="55"/><rect x="490" y="490" width="28" height="55"/>
      <rect x="735" y="487" width="30" height="58"/><rect x="820" y="487" width="30" height="58"/>
      <rect x="1075" y="492" width="28" height="53"/><rect x="1150" y="492" width="28" height="53"/>
      <rect x="1390" y="497" width="28" height="48"/><rect x="1460" y="497" width="28" height="48"/>
      <rect x="285" y="505" width="24" height="40"/><rect x="600" y="508" width="24" height="37"/>
      <rect x="930" y="503" width="24" height="42"/><rect x="1245" y="508" width="24" height="37"/>
    </g>
    <rect x="410" y="360" width="26" height="90" fill="#EFE3C2"/><path d="M400 372 L423 340 L446 372 Z" fill="#D9452F"/>
  </g>
  <rect y="600" width="1600" height="300" fill="url(#agua)"/>
  <g stroke="#EFE3C2" stroke-width="3" opacity="0.28" fill="none">
    <path d="M60 660 q40 -12 80 0 t80 0"/><path d="M400 700 q40 -12 80 0 t80 0"/>
    <path d="M900 665 q40 -12 80 0 t80 0"/><path d="M1200 730 q40 -12 80 0 t80 0"/>
    <path d="M200 780 q50 -14 100 0 t100 0"/><path d="M1000 800 q50 -14 100 0 t100 0"/>
  </g>
  <g>
    <g transform="translate(300,650)">
      <path d="M-70 0 q70 40 140 0 z" fill="#EFE3C2"/><rect x="-4" y="-95" width="7" height="95" fill="#0E2B2B"/>
      <path d="M3 -92 L70 -6 L3 -6 Z" fill="#D9452F" opacity="0.9"/><path d="M-6 -80 L-58 -6 L-6 -6 Z" fill="#F2B134" opacity="0.9"/>
    </g>
    <g transform="translate(1120,700) scale(0.8)">
      <path d="M-70 0 q70 40 140 0 z" fill="#EFE3C2"/><rect x="-4" y="-95" width="7" height="95" fill="#0E2B2B"/>
      <path d="M3 -92 L70 -6 L3 -6 Z" fill="#F2B134" opacity="0.9"/><path d="M-6 -80 L-58 -6 L-6 -6 Z" fill="#EFE3C2" opacity="0.8"/>
    </g>
    <g transform="translate(760,760) scale(0.55)" opacity="0.9">
      <path d="M-70 0 q70 40 140 0 z" fill="#EFE3C2"/><rect x="-4" y="-95" width="7" height="95" fill="#0E2B2B"/>
      <path d="M3 -92 L70 -6 L3 -6 Z" fill="#2E6FA7"/>
    </g>
  </g>
  <g fill="#0E2B2B" opacity="0.06">
    <rect y="0" width="1600" height="900"/>
  </g>
</svg>
